/* XPM */
static char *search_thing[] = {
/* columns rows colors chars-per-pixel */
"24 24 38 1 ",
"  c black",
". c #003E66",
"X c #515151",
"o c #727272",
"O c #004E80",
"+ c #0061A0",
"@ c gray57",
"# c gray60",
"$ c #A4A4A4",
"% c #A7A7A7",
"& c #ACACAC",
"* c #B1B1B1",
"= c #B2B2B2",
"- c gray71",
"; c #B7B7B7",
": c #B9B9B9",
"> c #BEC6CA",
", c #BBD6F2",
"< c #C0C0C0",
"1 c #C1C1C1",
"2 c #C3C3C3",
"3 c gray80",
"4 c gray85",
"5 c #D7DDE1",
"6 c #DDEEFF",
"7 c gray90",
"8 c #E7EBEC",
"9 c #EFF1F3",
"0 c #F0F2F3",
"q c #F5F7F8",
"w c #F8F9FA",
"e c #F9FAFB",
"r c #FAFAFB",
"t c #FAFBFC",
"y c gray99",
"u c #FCFCFD",
"i c white",
"p c None",
/* pixels */
"pppppppppppppppppppppppp",
"pp<              <pppppp",
"pp                <ppppp",
"pp  iiiiiiiiiiii  -ppppp",
"pp  iii......iii  &#%ppp",
"pp  ii..8qi0..ii  %  opp",
"pp  i..9iiii,..i  -   pp",
"pp  +.5iiii6,>.O  -i  pp",
"pp  +.5qiqw6,>.O  -i  pp",
"pp  +.5iii66,>.O  -i  pp",
"pp  +.5qq66,,>.O  -i  pp",
"pp  i..666,,,..3  -i  pp",
"pp  i7..,,,,...3  -i  pp",
"pp  i7%......+..  -i  pp",
"pp  i7%%++++%:+.. @i  pp",
"pp  i4<%%%%%%<4+..@3  pp",
"pp  ii<<<<<<<<i7+..3  pp",
"pp  iiiiiiiiiiii +..  pp",
"pp                +.. pp",
"pp<              <7+. pp",
"pppiiiiiiiiiiiiiiiii  pp",
"ppppp                 pp",
"ppppp                Xpp",
"pppppppppppppppppppppppp"
};
